# xmcd
#
# Track frame offsets:
#	150
#	13245
#	26252
#	45154
#	66748
#	81994
#	99646
#	114120
#	127601
#	147710
#	166361
#	188587
#	208480
#	223307
#
# Disc length: 3151 seconds
#
# Revision: 1
# Processed by: cddbd v1.5.2PL0 Copyright (c) Steve Scherf et al.
# Submitted via: audiograbber 1.82.02
#
DISCID=ca0c4d0e
DTITLE=Mandy Moore - Wild Hope
DYEAR=2007
DGENRE=Pop
TTITLE0=Extraordinary
TTITLE1=All Good Things
TTITLE2=Slummin' In Paradise
TTITLE3=Most Of Me
TTITLE4=Few Days Down
TTITLE5=Can't You Just Adore Her
TTITLE6=Looking Foward
TTITLE7=Wild Hope
TTITLE8=Nothing That You Are
TTITLE9=Latest Mistake
TTITLE10=Ladies' Choice
TTITLE11=Gardenia
TTITLE12=Could Have Been Watching You
TTITLE13=All Good Things (Raw Version)
EXTD=
EXTT0=
EXTT1=
EXTT2=
EXTT3=
EXTT4=
EXTT5=
EXTT6=
EXTT7=
EXTT8=
EXTT9=
EXTT10=
EXTT11=
EXTT12=
EXTT13=
PLAYORDER=
